<?xml version="1.0" encoding="UTF-8" standalone="no"?>
<svg
   xmlns:dc="http://purl.org/dc/elements/1.1/"
   xmlns:cc="http://creativecommons.org/ns#"
   xmlns:rdf="http://www.w3.org/1999/02/22-rdf-syntax-ns#"
   xmlns:svg="http://www.w3.org/2000/svg"
   xmlns="http://www.w3.org/2000/svg"
   viewBox="0 0 370.66666 266.66666"
   height="266.66666"
   width="370.66666"
   xml:space="preserve"
   id="svg2"
   version="1.1"><metadata
     id="metadata8"><rdf:RDF><cc:Work
         rdf:about=""><dc:format>image/svg+xml</dc:format><dc:type
           rdf:resource="http://purl.org/dc/dcmitype/StillImage" /></cc:Work></rdf:RDF></metadata><defs
     id="defs6" /><g
     transform="matrix(1.3333333,0,0,-1.3333333,0,266.66667)"
     id="g10"><g
       transform="scale(0.1)"
       id="g12"><path
         id="path14"
         style="fill:#008a3d;fill-opacity:1;fill-rule:evenodd;stroke:none"
         d="m 2321.99,584.609 c -111.64,-97.968 -230.31,-178.48 -355.97,-241.488 -125.36,-63.32 -253.01,-110.5 -383.01,-141.48 -130,-31.02 -257.5,-47.192 -382.5,-48.52 -125,-1.32 -242.85,11.02 -353.522,37 -110.968,25.66 -210.148,63.828 -297.5,114.488 -87.297,50.352 -158.316,111.84 -212.968,184.532 -54.68,72.66 -88.161,155.16 -100.5,247.5 -14.032,109.339 -4.5,216.48 28.468,321.479 33.012,105 90.512,205.36 172.5,301.02 82.032,95.66 189.852,183.98 323.524,265 -136.332,-50 -256.024,-113.36 -358.992,-190 -103,-76.68 -187.032,-162.03 -252.032,-256.02 C 84.1797,1084.14 40,986.129 16.9883,884.141 -5.98047,782.109 -5.66016,680.621 18.0117,579.609 42.6602,479.301 88.6719,391.129 156.02,315.121 223.359,238.789 307.852,175.781 409.488,126.129 511.172,76.4492 625.512,41.4492 752.5,21.1289 879.84,0.78125 1015.35,-3.55078 1159.02,8.12109 c 143.99,11.67971 292,40.66801 443.99,87.00001 157.65,49.0199 303.16,111.6799 436.48,187.9999 133.67,76.328 251.53,162 353.52,257 101.99,95.348 184.84,195.859 248.51,301.52 h -98.51 c -51.02,-85 -124.65,-170.661 -221.02,-257.032" /><path
         id="path16"
         style="fill:#6bb53f;fill-opacity:1;fill-rule:evenodd;stroke:none"
         d="m 2755.51,1422.11 c -24.65,100.35 -70.67,188.67 -138.01,265 -67.34,76.37 -151.84,139.34 -253.48,189.02 -101.68,49.34 -216.01,84.14 -343,104.49 -127.35,20.36 -262.86,24.65 -406.53,13.01 -143.98,-11.68 -291.99,-40.66 -443.98,-86.99 -28.01,-8.67 -55.82,-18.01 -83.52,-28.01 v -313.51 c 197.35,84.33 383.67,135.5 559.03,153.51 175.31,18.01 332.5,8.99 471.48,-26.99 139.02,-35.66 252.66,-92.03 341.02,-169.02 88.67,-77 144.84,-168.01 168.47,-273.01 23.67,-105 8.01,-217.81 -46.99,-338.481 h 99.49 c 43.01,85 71.37,170.671 85,256.991 13.67,86.33 10.67,171.02 -8.98,253.99" /><path
         id="path18"
         style="fill:#1e473f;fill-opacity:1;fill-rule:evenodd;stroke:none"
         d="m 613.91,1145.2 93,-235.079 93.051,235.079 h 39.84 V 871.09 h -31.129 v 207.23 L 724.77,871.09 H 687.422 L 603.09,1078.75 V 871.09 H 571.949 V 1145.2 Z M 1080.66,900.16 V 871.09 H 922.031 v 274.11 h 150.349 v -29.11 H 953.199 v -85.11 h 91.371 v -29.07 H 953.199 V 900.16 Z m 58.17,-29.07 v 274.11 h 1.64 c 8.87,0.54 18.71,1.01 29.49,1.44 10.82,0.39 21.06,0.63 30.74,0.63 14.96,0 28.52,-1.88 40.71,-5.63 12.18,-3.71 22.61,-9.34 31.32,-16.8 8.75,-7.5 15.51,-16.68 20.36,-27.61 4.84,-10.94 7.26,-23.64 7.26,-38.01 0,-11.64 -1.91,-22.58 -5.78,-32.81 -3.91,-10.24 -9.69,-19.26 -17.46,-27 -7.73,-7.73 -17.66,-13.898 -29.69,-18.469 -12.03,-4.57 -26.09,-6.882 -42.15,-6.882 -13.28,0 -25.07,0.429 -35.31,1.25 V 871.09 Z m 64.37,248.75 c -5.82,0 -11.56,-0.07 -17.22,-0.19 -5.71,-0.16 -11.02,-0.35 -16.02,-0.63 v -116.29 c 9.96,-0.82 21.33,-1.25 34.06,-1.25 20.47,0 35.94,5.2 46.29,15.59 10.39,10.39 15.59,25.55 15.59,45.47 0,8.59 -1.1,16.41 -3.32,23.48 -2.23,7.03 -5.74,13.08 -10.59,18.04 -4.84,5 -11.29,8.87 -19.29,11.64 -8.05,2.78 -17.9,4.14 -29.5,4.14 z m 204.73,25.36 V 871.09 h -31.13 v 218.44 l -39.89,-19.1 -9.14,29.06 z m 183.98,-274.11 v 274.11 c 8.87,0.54 19.22,1.01 31.14,1.44 11.91,0.39 22.85,0.63 32.81,0.63 24.65,0 44.45,-6.02 59.37,-18.09 14.97,-12.03 22.43,-29.8 22.43,-53.36 0,-11.05 -2.27,-21.09 -6.84,-30.12 -4.57,-8.98 -11.72,-16.68 -21.41,-23.04 16.64,-5.51 29.65,-14.26 39.07,-26.14 9.41,-11.911 14.1,-26.989 14.1,-45.27 0,-11.641 -2.07,-22.578 -6.21,-32.809 -4.18,-10.242 -10.55,-19.261 -19.1,-26.992 -8.6,-7.777 -19.26,-13.91 -32,-18.48 -12.73,-4.571 -27.69,-6.879 -44.84,-6.879 -13.55,0 -26.17,0.512 -37.81,1.492 -11.6,0.938 -21.84,2.109 -30.71,3.508 z m 67.27,22.43 c 22.42,0 39.53,5.191 51.29,15.582 11.76,10.347 17.65,25.507 17.65,45.468 0,15.782 -5.35,28.321 -15.97,37.578 -10.67,9.262 -28.6,13.902 -53.79,13.902 -6.09,0 -12.11,-0.07 -18.09,-0.19 -5.93,-0.16 -11.68,-0.35 -17.22,-0.63 V 894.77 c 10.78,-0.821 22.85,-1.25 36.13,-1.25 z m -10.78,136.21 c 17.42,0 30.94,4.41 40.47,13.28 9.57,8.87 14.33,20.9 14.33,36.13 0,12.19 -3.32,22.03 -9.96,29.49 -6.64,7.46 -18.28,11.21 -34.88,11.21 -6.09,0 -12.11,-0.07 -18.09,-0.19 -5.93,-0.16 -11.68,-0.35 -17.22,-0.63 v -88.86 c 3.86,-0.28 7.97,-0.43 12.26,-0.43 4.3,0 8.64,0 13.09,0 z m 206.8,-158.64 h -31.1406 v 274.109 H 1855.2 Z m 124.18,274.11 93,-235.079 93.05,235.079 h 39.84 V 871.09 h -31.13 v 207.23 l -83.91,-207.23 h -37.34 l -84.34,207.66 V 871.09 h -31.13 v 274.11 z" /></g></g></svg>